<svg width="1000" height="1000" viewBox="0 0 1000 1000" fill="none" xmlns="http://www.w3.org/2000/svg">
<g clip-path="url(#clip0_306_110)">
<path d="M500.003 592.575C448.875 592.575 407.427 551.128 407.427 500C407.427 448.872 448.875 407.425 500.003 407.425C551.132 407.425 592.579 448.872 592.579 500C592.579 551.128 551.132 592.575 500.003 592.575Z" fill="black"/>
<path d="M528.204 125.539C528.204 141.049 515.63 153.623 500.119 153.623C484.608 153.623 472.034 141.049 472.034 125.539C472.034 110.028 484.608 97.4539 500.119 97.4539C515.63 97.4539 528.204 110.028 528.204 125.539Z" fill="black"/>
<path d="M685.273 481.559C668.038 481.559 654.067 467.588 654.067 450.354C654.067 433.12 668.038 419.149 685.273 419.149C702.507 419.149 716.478 433.12 716.478 450.354C716.478 467.588 702.507 481.559 685.273 481.559Z" fill="black"/>
<path d="M818.978 442.482C803.467 442.482 790.893 429.908 790.893 414.397C790.893 398.887 803.467 386.313 818.978 386.313C834.489 386.313 847.063 398.887 847.063 414.397C847.063 429.908 834.489 442.482 818.978 442.482Z" fill="black"/>
<path d="M878.566 420.013C866.502 420.013 856.723 410.233 856.723 398.169C856.723 386.106 866.502 376.326 878.566 376.326C890.63 376.326 900.41 386.106 900.41 398.169C900.41 410.233 890.63 420.013 878.566 420.013Z" fill="black"/>
<path d="M981.505 387.379C971.739 387.379 963.821 379.462 963.821 369.696C963.821 359.93 971.739 352.013 981.505 352.013C991.271 352.013 999.188 359.93 999.188 369.696C999.188 379.462 991.271 387.379 981.505 387.379Z" fill="black"/>
<path d="M708.567 333.525C693.641 342.142 674.556 337.029 665.939 322.103C657.322 307.178 662.436 288.093 677.361 279.476C692.286 270.859 711.371 275.973 719.989 290.898C728.606 305.824 723.492 324.908 708.567 333.525Z" fill="black"/>
<path d="M787.726 249.925C774.294 257.681 757.117 253.078 749.362 239.645C741.606 226.213 746.209 209.036 759.641 201.281C773.074 193.526 790.251 198.128 798.006 211.561C805.762 224.994 801.159 242.17 787.726 249.925Z" fill="black"/>
<path d="M828.096 200.673C817.648 206.705 804.289 203.125 798.257 192.678C792.225 182.23 795.804 168.871 806.252 162.839C816.7 156.807 830.059 160.387 836.091 170.834C842.123 181.282 838.544 194.641 828.096 200.673Z" fill="black"/>
<path d="M900.925 120.943C892.467 125.826 881.653 122.928 876.77 114.47C871.886 106.012 874.784 95.1978 883.242 90.3149C891.7 85.4319 902.514 88.3297 907.397 96.7873C912.281 105.245 909.383 116.06 900.925 120.943Z" fill="black"/>
<path d="M577.072 330.16C568.455 345.085 549.37 350.199 534.444 341.582C519.519 332.964 514.405 313.88 523.022 298.954C531.64 284.029 550.724 278.916 565.65 287.533C580.575 296.15 585.689 315.234 577.072 330.16Z" fill="black"/>
<path d="M610.082 194.828C602.327 208.261 585.15 212.863 571.717 205.108C558.285 197.352 553.682 180.176 561.438 166.743C569.193 153.311 586.369 148.708 599.802 156.464C613.235 164.219 617.837 181.395 610.082 194.828Z" fill="black"/>
<path d="M620.417 131.991C614.385 142.438 601.026 146.018 590.578 139.986C580.13 133.954 576.551 120.595 582.583 110.147C588.615 99.6996 601.974 96.12 612.422 102.152C622.87 108.184 626.449 121.543 620.417 131.991Z" fill="black"/>
<path d="M643.623 26.5273C638.74 34.9849 627.926 37.8827 619.468 32.9997C611.01 28.1167 608.112 17.302 612.995 8.84441C617.878 0.386802 628.693 -2.51099 637.151 2.37201C645.609 7.25502 648.506 18.0697 643.623 26.5273Z" fill="black"/>
<path d="M874.462 528.085C858.951 528.085 846.377 515.511 846.377 500C846.377 484.49 858.951 471.916 874.462 471.916C889.972 471.916 902.546 484.49 902.546 500C902.546 515.511 889.972 528.085 874.462 528.085Z" fill="black"/>
<path d="M518.438 685.151C518.438 667.917 532.409 653.946 549.644 653.946C566.878 653.946 580.849 667.917 580.849 685.151C580.849 702.385 566.878 716.356 549.644 716.356C532.409 716.356 518.438 702.385 518.438 685.151Z" fill="black"/>
<path d="M557.516 818.856C557.516 803.346 570.09 790.772 585.601 790.772C601.112 790.772 613.686 803.346 613.686 818.856C613.686 834.367 601.112 846.941 585.601 846.941C570.09 846.941 557.516 834.367 557.516 818.856Z" fill="black"/>
<path d="M579.984 878.443C579.984 866.379 589.764 856.599 601.828 856.599C613.892 856.599 623.672 866.379 623.672 878.443C623.672 890.507 613.892 900.287 601.828 900.287C589.764 900.287 579.984 890.507 579.984 878.443Z" fill="black"/>
<path d="M612.62 981.38C612.62 971.614 620.537 963.697 630.303 963.697C640.069 963.697 647.986 971.614 647.986 981.38C647.986 991.146 640.069 999.063 630.303 999.063C620.537 999.063 612.62 991.146 612.62 981.38Z" fill="black"/>
<path d="M666.473 708.443C657.856 693.518 662.969 674.433 677.895 665.816C692.82 657.199 711.905 662.313 720.522 677.238C729.139 692.163 724.025 711.248 709.1 719.865C694.175 728.482 675.09 723.369 666.473 708.443Z" fill="black"/>
<path d="M750.073 787.603C742.318 774.17 746.92 756.994 760.353 749.239C773.786 741.483 790.962 746.086 798.718 759.518C806.473 772.951 801.871 790.127 788.438 797.883C775.005 805.638 757.829 801.036 750.073 787.603Z" fill="black"/>
<path d="M799.326 827.973C793.294 817.525 796.874 804.166 807.322 798.134C817.769 792.102 831.129 795.681 837.161 806.129C843.193 816.577 839.613 829.936 829.165 835.968C818.718 842 805.358 838.42 799.326 827.973Z" fill="black"/>
<path d="M879.058 900.801C874.175 892.344 877.073 881.529 885.531 876.646C893.988 871.763 904.803 874.661 909.686 883.119C914.569 891.576 911.671 902.391 903.214 907.274C894.756 912.157 883.941 909.259 879.058 900.801Z" fill="black"/>
<path d="M669.838 576.952C654.912 568.335 649.798 549.25 658.416 534.325C667.033 519.4 686.118 514.286 701.043 522.903C715.968 531.52 721.082 550.605 712.465 565.53C703.848 580.456 684.763 585.569 669.838 576.952Z" fill="black"/>
<path d="M805.171 609.963C791.738 602.207 787.136 585.031 794.891 571.598C802.647 558.166 819.823 553.563 833.256 561.319C846.689 569.074 851.291 586.25 843.536 599.683C835.78 613.116 818.604 617.718 805.171 609.963Z" fill="black"/>
<path d="M868.008 620.297C857.56 614.265 853.981 600.906 860.013 590.458C866.045 580.011 879.404 576.431 889.852 582.463C900.3 588.495 903.879 601.854 897.847 612.302C891.815 622.75 878.456 626.329 868.008 620.297Z" fill="black"/>
<path d="M973.473 643.504C965.015 638.621 962.117 627.806 967 619.348C971.883 610.891 982.698 607.993 991.156 612.876C999.613 617.759 1002.51 628.574 997.628 637.031C992.745 645.489 981.93 648.387 973.473 643.504Z" fill="black"/>
<path d="M471.627 874.463C471.627 858.952 484.201 846.378 499.712 846.378C515.222 846.378 527.796 858.952 527.796 874.463C527.796 889.973 515.222 902.547 499.712 902.547C484.201 902.547 471.627 889.973 471.627 874.463Z" fill="black"/>
<path d="M314.558 518.443C331.792 518.443 345.764 532.414 345.764 549.648C345.763 566.882 331.792 580.853 314.558 580.853C297.324 580.853 283.353 566.882 283.353 549.648C283.353 532.414 297.324 518.443 314.558 518.443Z" fill="black"/>
<path d="M180.853 557.52C196.363 557.52 208.938 570.094 208.938 585.605C208.938 601.115 196.363 613.689 180.853 613.689C165.342 613.689 152.768 601.115 152.768 585.605C152.768 570.094 165.342 557.52 180.853 557.52Z" fill="black"/>
<path d="M121.264 579.989C133.328 579.989 143.108 589.769 143.108 601.833C143.108 613.897 133.328 623.676 121.264 623.676C109.2 623.676 99.4207 613.897 99.4207 601.833C99.4207 589.769 109.2 579.989 121.264 579.989Z" fill="black"/>
<path d="M18.3262 612.624C28.0923 612.624 36.0093 620.54 36.0093 630.306C36.0093 640.072 28.0923 647.989 18.3262 647.989C8.56014 647.989 0.643163 640.072 0.643164 630.306C0.643165 620.54 8.56015 612.624 18.3262 612.624Z" fill="black"/>
<path d="M291.265 666.475C306.19 657.858 325.275 662.971 333.892 677.897C342.51 692.822 337.396 711.907 322.47 720.524C307.545 729.141 288.46 724.027 279.843 709.102C271.226 694.176 276.34 675.092 291.265 666.475Z" fill="black"/>
<path d="M212.106 750.075C225.538 742.32 242.715 746.922 250.47 760.355C258.226 773.788 253.623 790.964 240.191 798.719C226.758 806.475 209.581 801.872 201.826 788.44C194.071 775.007 198.673 757.831 212.106 750.075Z" fill="black"/>
<path d="M171.736 799.327C182.184 793.295 195.543 796.875 201.575 807.323C207.607 817.77 204.028 831.13 193.58 837.162C183.132 843.194 169.773 839.614 163.741 829.166C157.709 818.719 161.288 805.359 171.736 799.327Z" fill="black"/>
<path d="M98.9069 879.058C107.365 874.175 118.179 877.073 123.062 885.531C127.946 893.988 125.048 904.803 116.59 909.686C108.132 914.569 97.3176 911.671 92.4345 903.214C87.5515 894.756 90.4493 883.941 98.9069 879.058Z" fill="black"/>
<path d="M422.758 669.844C431.375 654.919 450.46 649.805 465.385 658.422C480.311 667.039 485.425 686.124 476.808 701.049C468.19 715.974 449.105 721.088 434.18 712.471C419.255 703.854 414.141 684.769 422.758 669.844Z" fill="black"/>
<path d="M389.748 805.175C397.503 791.742 414.68 787.14 428.113 794.895C441.546 802.651 446.148 819.827 438.393 833.259C430.637 846.692 413.461 851.294 400.028 843.539C386.595 835.784 381.993 818.607 389.748 805.175Z" fill="black"/>
<path d="M379.413 868.011C385.445 857.563 398.805 853.984 409.253 860.015C419.7 866.047 423.28 879.407 417.248 889.854C411.216 900.302 397.857 903.881 387.409 897.849C376.961 891.817 373.381 878.458 379.413 868.011Z" fill="black"/>
<path d="M356.207 973.473C361.09 965.015 371.905 962.118 380.363 967.001C388.821 971.884 391.718 982.698 386.835 991.156C381.952 999.613 371.137 1002.51 362.68 997.628C354.222 992.745 351.324 981.93 356.207 973.473Z" fill="black"/>
<path d="M125.538 471.623C141.049 471.623 153.623 484.197 153.623 499.708C153.623 515.218 141.049 527.792 125.538 527.792C110.027 527.792 97.4532 515.218 97.4532 499.708C97.4532 484.197 110.027 471.623 125.538 471.623Z" fill="black"/>
<path d="M481.562 314.558C481.562 331.792 467.591 345.763 450.356 345.763C433.122 345.763 419.151 331.792 419.151 314.558C419.151 297.324 433.122 283.353 450.356 283.353C467.591 283.353 481.562 297.324 481.562 314.558Z" fill="black"/>
<path d="M442.483 180.853C442.483 196.364 429.909 208.938 414.399 208.938C398.888 208.938 386.314 196.364 386.314 180.853C386.314 165.342 398.888 152.768 414.399 152.768C429.909 152.768 442.483 165.342 442.483 180.853Z" fill="black"/>
<path d="M420.016 121.266C420.016 133.33 410.236 143.109 398.172 143.109C386.108 143.109 376.328 133.33 376.328 121.266C376.328 109.202 386.108 99.4222 398.172 99.4222C410.236 99.4222 420.016 109.202 420.016 121.266Z" fill="black"/>
<path d="M387.381 18.3293C387.381 28.0953 379.464 36.0122 369.698 36.0122C359.931 36.0122 352.014 28.0953 352.014 18.3293C352.014 8.56328 359.931 0.646369 369.697 0.646373C379.464 0.646376 387.381 8.56329 387.381 18.3293Z" fill="black"/>
<path d="M333.529 291.265C342.146 306.19 337.032 325.275 322.107 333.892C307.182 342.509 288.097 337.395 279.48 322.47C270.862 307.544 275.976 288.46 290.902 279.843C305.827 271.226 324.912 276.339 333.529 291.265Z" fill="black"/>
<path d="M249.927 212.105C257.683 225.538 253.08 242.714 239.647 250.469C226.215 258.225 209.038 253.622 201.283 240.19C193.527 226.757 198.13 209.581 211.562 201.825C224.995 194.07 242.172 198.672 249.927 212.105Z" fill="black"/>
<path d="M200.675 171.735C206.707 182.183 203.127 195.542 192.679 201.574C182.232 207.606 168.872 204.026 162.84 193.579C156.808 183.131 160.388 169.772 170.835 163.74C181.283 157.708 194.643 161.288 200.675 171.735Z" fill="black"/>
<path d="M120.943 98.9069C125.826 107.364 122.928 118.179 114.471 123.062C106.013 127.945 95.1981 125.047 90.315 116.59C85.432 108.132 88.3298 97.3175 96.7874 92.4345C105.245 87.5515 116.06 90.4493 120.943 98.9069Z" fill="black"/>
<path d="M330.163 422.756C345.088 431.373 350.202 450.458 341.585 465.383C332.968 480.308 313.883 485.422 298.958 476.805C284.032 468.188 278.918 449.103 287.536 434.178C296.153 419.253 315.238 414.139 330.163 422.756Z" fill="black"/>
<path d="M194.83 389.745C208.263 397.501 212.866 414.677 205.11 428.109C197.355 441.542 180.178 446.144 166.746 438.389C153.313 430.634 148.71 413.457 156.466 400.025C164.221 386.592 181.398 381.99 194.83 389.745Z" fill="black"/>
<path d="M131.992 379.411C142.44 385.443 146.02 398.802 139.988 409.25C133.956 419.697 120.596 423.277 110.149 417.245C99.7009 411.213 96.1212 397.854 102.153 387.406C108.185 376.959 121.545 373.379 131.992 379.411Z" fill="black"/>
<path d="M26.5276 356.204C34.9853 361.087 37.8831 371.902 33.0001 380.359C28.117 388.817 17.3022 391.715 8.84451 386.832C0.386815 381.949 -2.51101 371.134 2.37203 362.676C7.25508 354.219 18.0699 351.321 26.5276 356.204Z" fill="black"/>
</g>
<defs>
<clipPath id="clip0_306_110">
<rect width="1000" height="1000" fill="white"/>
</clipPath>
</defs>
</svg>
